<svg xmlns="http://www.w3.org/2000/svg" style="display:none;">
    <symbol id="ps-icon" viewBox="0 0 24 24">
        <path d="M21,9V6H16V3h4V1H10v2h4v3h-3.968L7.532,9H5v4H2v-4H0v10h2v-4h3v3.414l3.586,3.586H19v-2h3V9Zm1,9H19v2H9.414L7,17.586V11H8.468L11,8h8v3h3v7Z"/>
    </symbol>
      <symbol id="gear" viewBox="0 0 122.88 122.88">
<path d="M61.44,0A61.46,61.46,0,1,1,18,18,61.23,61.23,0,0,1,61.44,0Zm4.07,82.09a6.67,6.67,0,1,1-8.14,0V68.62H42.31V82.09a6.67,6.67,0,1,1-8.14,0V46.17a6.67,6.67,0,1,1,8.14,0V60.48H57.37V46.17a6.67,6.67,0,1,1,8.14,0V60.48H80.57V46.17a6.67,6.67,0,1,1,8.14,0V64a4.41,4.41,0,0,1,0,.52,4.07,4.07,0,0,1-4.07,4.07H65.51V82.09Zm33-57.76a52.46,52.46,0,1,0,15.38,37.11A52.29,52.29,0,0,0,98.55,24.33Z"/>    </symbol>
    <symbol id="price-icon" viewBox="0 0 24 24">
        <path d="M12,2C6.48,2,2,6.48,2,12s4.48,10,10,10,10-4.48,10-10S17.52,2,12,2Zm0,18c-4.41,0-8-3.59-8-8s3.59-8,8-8,8,3.59,8,8-3.59,8-8,8ZM11,11H7v2h4v4h2V13h4V11H13V7H11v4Z"/>
    </symbol>
    <symbol id="description-icon" viewBox="0 0 24 24">
        <path d="M14,2H6A2,2,0,0,0,4,4V20a2,2,0,0,0,2,2h8a2,2,0,0,0,2-2V8Zm4,16H14V9H6V4h7V8h5Z"/>
    </symbol>
    <symbol id="location-icon" viewBox="0 0 24 24">
        <path d="M12,2A7,7,0,0,0,5,9c0,5.25,7,13,7,13s7-7.75,7-13A7,7,0,0,0,12,2Zm0,9a2,2,0,1,1,2-2A2,2,0,0,1,12,11Z"/>
    </symbol>
    <symbol id="availability-icon" viewBox="0 0 24 24">
        <path d="M19,3H18V1H16V3H8V1H6V3H5A2,2,0,0,0,3,5V21a2,2,0,0,0,2,2H19a2,2,0,0,0,2-2V5A2,2,0,0,0,19,3ZM19,21H5V8H19Zm0-13H5V5H19Z"/>
    </symbol>
    <symbol id="person" viewBox="0 0 24 24">
        <path d="M12,2A5,5,0,1,0,17,7,5,5,0,0,0,12,2Zm0,9A7,7,0,0,0,5,18v3H19V18A7,7,0,0,0,12,11Z"/>
    </symbol>
    <symbol id="model" viewBox="0 0 24 24">
<path d="M23.5 7c.276 0 .5.224.5.5v.511c0 .793-.926.989-1.616.989l-1.086-2h2.202zm-1.441 3.506c.639 1.186.946 2.252.946 3.666 0 1.37-.397 2.533-1.005 3.981v1.847c0 .552-.448 1-1 1h-1.5c-.552 0-1-.448-1-1v-1h-13v1c0 .552-.448 1-1 1h-1.5c-.552 0-1-.448-1-1v-1.847c-.608-1.448-1.005-2.611-1.005-3.981 0-1.414.307-2.48.946-3.666.829-1.537 1.851-3.453 2.93-5.252.828-1.382 1.262-1.707 2.278-1.889 1.532-.275 2.918-.365 4.851-.365s3.319.09 4.851.365c1.016.182 1.45.507 2.278 1.889 1.079 1.799 2.101 3.715 2.93 5.252zm-16.059 2.994c0-.828-.672-1.5-1.5-1.5s-1.5.672-1.5 1.5.672 1.5 1.5 1.5 1.5-.672 1.5-1.5zm10 1c0-.276-.224-.5-.5-.5h-7c-.276 0-.5.224-.5.5s.224.5.5.5h7c.276 0 .5-.224.5-.5zm2.941-5.527s-.74-1.826-1.631-3.142c-.202-.298-.515-.502-.869-.566-1.511-.272-2.835-.359-4.441-.359s-2.93.087-4.441.359c-.354.063-.667.267-.869.566-.891 1.315-1.631 3.142-1.631 3.142 1.64.313 4.309.497 6.941.497s5.301-.184 6.941-.497zm2.059 4.527c0-.828-.672-1.5-1.5-1.5s-1.5.672-1.5 1.5.672 1.5 1.5 1.5 1.5-.672 1.5-1.5zm-18.298-6.5h-2.202c-.276 0-.5.224-.5.5v.511c0 .793.926.989 1.616.989l1.086-2z"/>
    </symbol>
</svg>


